<mxfile host="app.diagrams.net" agent="Mozilla/5.0 (Macintosh; Intel Mac OS X 10_15_7) AppleWebKit/537.36 (KHTML, like Gecko) Chrome/131.0.0.0 Safari/537.36" version="25.0.3">
  <diagram name="第 1 页" id="2eZx27Ocn30Se04imaJ9">
    <mxGraphModel dx="1008" dy="2981" grid="1" gridSize="10" guides="1" tooltips="1" connect="1" arrows="1" fold="1" page="1" pageScale="1" pageWidth="3200" pageHeight="2400" math="0" shadow="0">
      <root>
        <mxCell id="0" />
        <mxCell id="1" parent="0" />
        <mxCell id="1zfNpxRRPsf9pJcdw0uy-2" value="&lt;font style=&quot;font-size: 18px;&quot;&gt;Goroutine&lt;/font&gt;" style="ellipse;whiteSpace=wrap;html=1;aspect=fixed;fillColor=#d5e8d4;strokeColor=#82b366;" vertex="1" parent="1">
          <mxGeometry x="480" y="240" width="120" height="120" as="geometry" />
        </mxCell>
        <mxCell id="1zfNpxRRPsf9pJcdw0uy-3" value="&lt;font style=&quot;font-size: 18px;&quot;&gt;Goroutine&lt;/font&gt;" style="ellipse;whiteSpace=wrap;html=1;aspect=fixed;fillColor=#d5e8d4;strokeColor=#82b366;" vertex="1" parent="1">
          <mxGeometry x="920" y="240" width="120" height="120" as="geometry" />
        </mxCell>
        <mxCell id="1zfNpxRRPsf9pJcdw0uy-4" value="" style="rounded=1;whiteSpace=wrap;html=1;rotation=90;fillColor=#dae8fc;strokeColor=#6c8ebf;" vertex="1" parent="1">
          <mxGeometry x="580" y="-40" width="360" height="40" as="geometry" />
        </mxCell>
        <mxCell id="1zfNpxRRPsf9pJcdw0uy-10" value="" style="shape=flexArrow;endArrow=classic;html=1;rounded=0;entryX=0.071;entryY=0.975;entryDx=0;entryDy=0;entryPerimeter=0;width=5;endSize=18.07;endWidth=5;fillColor=#f8cecc;strokeColor=#b85450;" edge="1" parent="1" source="1zfNpxRRPsf9pJcdw0uy-2" target="1zfNpxRRPsf9pJcdw0uy-4">
          <mxGeometry width="50" height="50" relative="1" as="geometry">
            <mxPoint x="550" y="190" as="sourcePoint" />
            <mxPoint x="600" y="140" as="targetPoint" />
          </mxGeometry>
        </mxCell>
        <mxCell id="1zfNpxRRPsf9pJcdw0uy-12" value="&lt;font style=&quot;font-size: 18px;&quot;&gt;写数据&lt;/font&gt;" style="text;html=1;align=center;verticalAlign=middle;whiteSpace=wrap;rounded=0;" vertex="1" parent="1">
          <mxGeometry x="580" y="30" width="120" height="60" as="geometry" />
        </mxCell>
        <mxCell id="1zfNpxRRPsf9pJcdw0uy-14" value="" style="shape=flexArrow;endArrow=classic;html=1;rounded=0;entryX=0.083;entryY=-0.025;entryDx=0;entryDy=0;entryPerimeter=0;width=5;endSize=18.07;endWidth=5;fillColor=#f8cecc;strokeColor=#b85450;" edge="1" parent="1" source="1zfNpxRRPsf9pJcdw0uy-3" target="1zfNpxRRPsf9pJcdw0uy-4">
          <mxGeometry width="50" height="50" relative="1" as="geometry">
            <mxPoint x="573" y="255" as="sourcePoint" />
            <mxPoint x="751" y="-164" as="targetPoint" />
          </mxGeometry>
        </mxCell>
        <mxCell id="1zfNpxRRPsf9pJcdw0uy-15" value="&lt;font style=&quot;font-size: 18px;&quot;&gt;读数据&lt;/font&gt;" style="text;html=1;align=center;verticalAlign=middle;whiteSpace=wrap;rounded=0;" vertex="1" parent="1">
          <mxGeometry x="820" y="30" width="120" height="60" as="geometry" />
        </mxCell>
      </root>
    </mxGraphModel>
  </diagram>
</mxfile>
